<?xml version="1.0" encoding="utf-8"?>
<!-- Generator: Adobe Illustrator 28.1.0, SVG Export Plug-In . SVG Version: 6.00 Build 0)  -->
<svg version="1.1" id="Layer_1" xmlns="http://www.w3.org/2000/svg" xmlns:xlink="http://www.w3.org/1999/xlink" x="0px" y="0px"
	 viewBox="0 0 1000 1000" style="enable-background:new 0 0 1000 1000;" xml:space="preserve">
<style type="text/css">
	.st0{fill:#EFE818;}
	.st1{fill:#B52126;}
</style>
<g>
	<path class="st0" d="M623.92,263.6c0,4.14-1.64,7.88-4.36,10.6c-2.72,2.72-6.46,4.42-10.6,4.42H380.83
		c-8.28,0-15.02-6.75-15.02-15.02c0-4.14,1.7-7.88,4.42-10.6c2.72-2.72,6.46-4.42,10.6-4.42h6.86c-0.11-2.1-0.17-4.2-0.17-6.29
		c0-41.33,26.7-77.49,57.82-97.5l8.16,54.76c0.68,4.65,5.05,7.82,9.64,7.14c4.65-0.68,7.88-5.05,7.2-9.69l-9.07-60.94
		c11.45-5.16,23.02-7.99,33.62-7.99c10.6,0,22.11,2.83,33.56,7.99L519.38,197c-0.68,4.65,2.55,9.01,7.2,9.69
		c4.59,0.68,8.96-2.49,9.64-7.14l8.16-54.82c31.12,20.01,57.88,56.24,57.88,97.56c0,2.1-0.06,4.2-0.17,6.29h6.86
		C617.23,248.58,623.92,255.33,623.92,263.6z"/>
	<g>
		<path class="st1" d="M604.87,292.46c-12.24,63.21-42.23,110.03-79.02,127.04c-9.92,4.59-20.29,7.03-31.01,7.03
			c-10.71,0-21.09-2.44-31.01-7.03c-36.73-17.01-66.72-63.83-78.97-127.04h17.4c14.4,70.18,51.3,117.06,92.57,117.06
			c41.33,0,78.23-46.88,92.63-117.06H604.87z"/>
	</g>
	<path class="st1" d="M711.94,558.04v13.21c0,10.25-2.21,15.15-6.21,23.87h-112.5v-43.87H398.44v43.87h-111.8
		c-3.99-8.73-6.22-13.62-6.22-23.87v-13.21c0-48.52,24.04-91.38,60.77-116.84c17.91-12.52,38.83-20.86,61.39-23.74
		c25,30.04,57.42,47.55,92.24,47.55c34.98,0,67.52-17.63,92.52-47.85c22.55,2.44,43.53,10.38,61.56,22.4
		C686.88,464.85,711.94,508.5,711.94,558.04z"/>
	<g>
		<rect x="410.16" y="562.57" class="st1" width="79.03" height="36.35"/>
		<rect x="503.2" y="562.57" class="st1" width="79.03" height="36.35"/>
	</g>
</g>
<g>
	<path class="st1" d="M154.92,683.17v45.24h-32.69v-62.3c-11.42-8.28-20.21-18.08-25.47-28.85v155.67h25.47v-39.17h32.69v39.17
		h25.47V690.2C171.44,688.5,162.9,686.12,154.92,683.17z"/>
	<path class="st1" d="M252.9,689.12h-24.51l-39.11,103.8h26.78l6.52-18.42h35.47l6.67,18.42h27.29L252.9,689.12z M230.06,752.27
		l10.41-29.31l10.21,29.31H230.06z"/>
	<path class="st1" d="M362.5,689.86v54.48l-37.8-54.48h-23.8v103.06h25.22V736.4l39.26,56.52h22.28V689.86H362.5z"/>
	<path class="st1" d="M439.36,689.86h-35.42v103.06h34.92c33.05,0,52.35-22.11,52.35-51.81v-0.28
		C491.21,711.06,472.15,689.86,439.36,689.86z M465.08,741.56c0,16.61-10.11,26.02-25.32,26.02H429.4V715.2h10.36
		c15.21,0,25.32,9.52,25.32,26.02V741.56z"/>
	<path class="st1" d="M554.32,689.86l-19.05,37.53l-18.9-37.53h-29.01l34.92,64.46v38.61h25.57v-39l34.92-64.06H554.32z"/>
	<path class="st1" d="M661.4,689.86l-21.93,39.91l-21.93-39.91h-26.88v103.06h24.91v-58.9l23.4,40.08h0.51l23.5-40.36v59.18h25.32
		V689.86H661.4z"/>
	<path class="st1" d="M760.84,689.12h-24.56l-39.11,103.8h26.78l6.57-18.42h35.42l6.72,18.42h27.29L760.84,689.12z M738,752.27
		l10.36-29.31l10.26,29.31H738z"/>
	<path class="st1" d="M870.4,665.94v78.4l-40.58-58.5c-6.67,1.98-13.69,3.68-20.97,4.93v102.15h25.22V736.4l39.21,56.52h22.34
		V637.25C890.31,647.97,881.67,657.66,870.4,665.94z"/>
</g>
<g>
	<path class="st1" d="M114.61,839.75l-12.29-16.13v16.13h-5.51v-25.38h5.15L113.85,830v-15.63h5.51v25.38H114.61z"/>
	<path class="st1" d="M150.28,832.16c-0.68,1.58-1.61,2.97-2.81,4.17c-1.2,1.2-2.62,2.14-4.28,2.83c-1.66,0.69-3.46,1.03-5.42,1.03
		c-1.96,0-3.76-0.34-5.4-1.03c-1.64-0.69-3.06-1.62-4.26-2.79s-2.13-2.55-2.79-4.13c-0.66-1.58-1-3.28-1-5.09v-0.07
		c0-1.81,0.34-3.51,1.02-5.09c0.68-1.58,1.61-2.97,2.81-4.17c1.2-1.2,2.62-2.14,4.28-2.83c1.66-0.69,3.46-1.03,5.42-1.03
		c1.96,0,3.76,0.34,5.4,1.03c1.64,0.69,3.06,1.62,4.26,2.79c1.2,1.17,2.13,2.55,2.79,4.13c0.66,1.58,1,3.28,1,5.09v0.07
		C151.3,828.87,150.96,830.57,150.28,832.16z M145.46,827.06c0-1.09-0.19-2.11-0.56-3.08c-0.37-0.97-0.91-1.81-1.6-2.54
		c-0.69-0.72-1.5-1.3-2.45-1.72c-0.94-0.42-1.97-0.63-3.08-0.63c-1.14,0-2.17,0.21-3.1,0.62c-0.93,0.41-1.73,0.98-2.39,1.7
		c-0.66,0.73-1.18,1.56-1.56,2.52c-0.38,0.96-0.56,1.98-0.56,3.06v0.07c0,1.09,0.19,2.12,0.56,3.08c0.37,0.97,0.91,1.81,1.6,2.54
		c0.69,0.73,1.5,1.3,2.43,1.72c0.93,0.42,1.96,0.63,3.1,0.63c1.11,0,2.14-0.21,3.08-0.62c0.94-0.41,1.75-0.98,2.41-1.7
		c0.66-0.73,1.18-1.56,1.56-2.52c0.37-0.95,0.56-1.98,0.56-3.06V827.06z"/>
	<path class="st1" d="M183.02,839.75v-10.19h-10.3v10.19h-5.58v-25.38h5.58v10.04h10.3v-10.04h5.58v25.38H183.02z"/>
	<path class="st1" d="M219.52,832.16c-0.68,1.58-1.61,2.97-2.81,4.17c-1.2,1.2-2.62,2.14-4.28,2.83c-1.66,0.69-3.46,1.03-5.42,1.03
		c-1.96,0-3.76-0.34-5.4-1.03c-1.64-0.69-3.06-1.62-4.26-2.79s-2.13-2.55-2.79-4.13c-0.66-1.58-1-3.28-1-5.09v-0.07
		c0-1.81,0.34-3.51,1.02-5.09c0.68-1.58,1.61-2.97,2.81-4.17c1.2-1.2,2.62-2.14,4.28-2.83c1.66-0.69,3.46-1.03,5.42-1.03
		c1.96,0,3.76,0.34,5.4,1.03c1.64,0.69,3.06,1.62,4.26,2.79c1.2,1.17,2.13,2.55,2.79,4.13c0.66,1.58,1,3.28,1,5.09v0.07
		C220.54,828.87,220.2,830.57,219.52,832.16z M214.7,827.06c0-1.09-0.19-2.11-0.56-3.08c-0.37-0.97-0.91-1.81-1.6-2.54
		c-0.69-0.72-1.5-1.3-2.45-1.72c-0.94-0.42-1.97-0.63-3.08-0.63c-1.14,0-2.17,0.21-3.1,0.62c-0.93,0.41-1.73,0.98-2.39,1.7
		c-0.66,0.73-1.18,1.56-1.56,2.52c-0.38,0.96-0.56,1.98-0.56,3.06v0.07c0,1.09,0.19,2.12,0.56,3.08c0.37,0.97,0.91,1.81,1.6,2.54
		c0.69,0.73,1.5,1.3,2.43,1.72c0.93,0.42,1.96,0.63,3.1,0.63c1.11,0,2.14-0.21,3.08-0.62c0.94-0.41,1.75-0.98,2.41-1.7
		c0.66-0.73,1.18-1.56,1.56-2.52c0.37-0.95,0.56-1.98,0.56-3.06V827.06z"/>
	<path class="st1" d="M245.37,839.75v-16.57l-7.14,10.84h-0.15l-7.07-10.73v16.46h-5.51v-25.38h6.02l6.67,10.73l6.67-10.73h6.02
		v25.38H245.37z"/>
	<path class="st1" d="M256.97,839.75v-25.38h19.11v4.97h-13.59v5.15h11.96v4.97h-11.96v5.33h13.78v4.97H256.97z"/>
	<path class="st1" d="M292.39,839.75v-25.38h5.58v25.38H292.39z"/>
	<path class="st1" d="M324.18,839.75v-16.57l-7.14,10.84h-0.15l-7.07-10.73v16.46h-5.51v-25.38h6.02l6.67,10.73l6.67-10.73h6.02
		v25.38H324.18z"/>
	<path class="st1" d="M355.07,827.1c-0.53,1.11-1.26,2.04-2.19,2.79c-0.93,0.75-2.02,1.31-3.26,1.69c-1.24,0.37-2.58,0.56-4.01,0.56
		h-4.24v7.61h-5.58v-25.38h10.37c1.52,0,2.88,0.21,4.08,0.63c1.2,0.42,2.21,1.02,3.05,1.79c0.83,0.77,1.47,1.7,1.92,2.77
		c0.45,1.08,0.67,2.27,0.67,3.57v0.07C355.87,824.69,355.6,825.99,355.07,827.1z M350.21,823.26c0-1.26-0.4-2.21-1.21-2.86
		c-0.81-0.65-1.92-0.98-3.32-0.98h-4.31v7.76h4.42c1.4,0,2.49-0.37,3.26-1.11c0.77-0.74,1.16-1.65,1.16-2.74V823.26z"/>
	<path class="st1" d="M375.41,839.75l-5.44-8.12h-4.39v8.12H360v-25.38h11.6c3.02,0,5.37,0.74,7.05,2.21
		c1.68,1.47,2.52,3.53,2.52,6.16v0.07c0,2.06-0.5,3.73-1.5,5.02c-1,1.29-2.31,2.24-3.93,2.85l6.2,9.06H375.41z M375.52,823.04
		c0-1.21-0.39-2.11-1.16-2.72c-0.77-0.6-1.85-0.91-3.23-0.91h-5.55v7.29h5.66c1.38,0,2.43-0.33,3.17-0.98
		c0.74-0.65,1.11-1.52,1.11-2.61V823.04z"/>
	<path class="st1" d="M411.04,832.16c-0.68,1.58-1.61,2.97-2.81,4.17c-1.2,1.2-2.62,2.14-4.28,2.83c-1.66,0.69-3.46,1.03-5.42,1.03
		c-1.96,0-3.76-0.34-5.4-1.03c-1.64-0.69-3.06-1.62-4.26-2.79s-2.13-2.55-2.79-4.13c-0.66-1.58-1-3.28-1-5.09v-0.07
		c0-1.81,0.34-3.51,1.02-5.09c0.68-1.58,1.61-2.97,2.81-4.17c1.2-1.2,2.62-2.14,4.28-2.83c1.66-0.69,3.46-1.03,5.42-1.03
		c1.96,0,3.76,0.34,5.4,1.03c1.64,0.69,3.06,1.62,4.26,2.79c1.2,1.17,2.13,2.55,2.79,4.13c0.66,1.58,1,3.28,1,5.09v0.07
		C412.06,828.87,411.72,830.57,411.04,832.16z M406.22,827.06c0-1.09-0.19-2.11-0.56-3.08c-0.37-0.97-0.91-1.81-1.6-2.54
		c-0.69-0.72-1.5-1.3-2.45-1.72c-0.94-0.42-1.97-0.63-3.08-0.63c-1.14,0-2.17,0.21-3.1,0.62c-0.93,0.41-1.73,0.98-2.39,1.7
		c-0.66,0.73-1.18,1.56-1.56,2.52c-0.38,0.96-0.56,1.98-0.56,3.06v0.07c0,1.09,0.19,2.12,0.56,3.08c0.37,0.97,0.91,1.81,1.6,2.54
		c0.69,0.73,1.5,1.3,2.43,1.72c0.93,0.42,1.96,0.63,3.1,0.63c1.11,0,2.14-0.21,3.08-0.62c0.94-0.41,1.75-0.98,2.41-1.7
		c0.66-0.73,1.18-1.56,1.56-2.52c0.37-0.95,0.56-1.98,0.56-3.06V827.06z"/>
	<path class="st1" d="M430.04,839.93h-4.93l-10.26-25.56h6.16l6.63,17.87l6.63-17.87h6.02L430.04,839.93z"/>
	<path class="st1" d="M444.22,839.75v-25.38h19.11v4.97h-13.59v5.15h11.96v4.97h-11.96v5.33h13.78v4.97H444.22z"/>
	<path class="st1" d="M488.37,839.75v-16.57l-7.14,10.84h-0.15l-7.07-10.73v16.46h-5.51v-25.38h6.02l6.67,10.73l6.67-10.73h6.02
		v25.38H488.37z"/>
	<path class="st1" d="M499.97,839.75v-25.38h19.1v4.97h-13.59v5.15h11.96v4.97h-11.96v5.33h13.78v4.97H499.97z"/>
	<path class="st1" d="M542.06,839.75l-12.29-16.13v16.13h-5.51v-25.38h5.15L541.3,830v-15.63h5.51v25.38H542.06z"/>
	<path class="st1" d="M564.39,819.52v20.23h-5.58v-20.23h-7.72v-5.15h21.03v5.15H564.39z"/>
	<path class="st1" d="M601.37,835c-0.44,1.14-1.05,2.08-1.83,2.85c-0.79,0.76-1.73,1.33-2.85,1.7c-1.11,0.37-2.33,0.56-3.66,0.56
		c-1.98,0-3.64-0.37-4.98-1.12c-1.34-0.75-2.45-1.64-3.32-2.68l3.52-3.91c0.72,0.8,1.45,1.42,2.19,1.87
		c0.74,0.45,1.55,0.67,2.45,0.67c1.06,0,1.9-0.33,2.5-1c0.6-0.66,0.91-1.73,0.91-3.21v-16.35h5.73v16.6
		C602.02,832.52,601.81,833.87,601.37,835z"/>
	<path class="st1" d="M632.55,832.16c-0.68,1.58-1.61,2.97-2.81,4.17c-1.2,1.2-2.62,2.14-4.28,2.83c-1.66,0.69-3.46,1.03-5.42,1.03
		s-3.76-0.34-5.4-1.03c-1.64-0.69-3.06-1.62-4.26-2.79c-1.2-1.17-2.13-2.55-2.79-4.13c-0.66-1.58-1-3.28-1-5.09v-0.07
		c0-1.81,0.34-3.51,1.01-5.09c0.68-1.58,1.61-2.97,2.81-4.17c1.2-1.2,2.62-2.14,4.28-2.83c1.65-0.69,3.46-1.03,5.42-1.03
		s3.76,0.34,5.4,1.03c1.64,0.69,3.06,1.62,4.26,2.79c1.2,1.17,2.13,2.55,2.79,4.13c0.66,1.58,1,3.28,1,5.09v0.07
		C633.56,828.87,633.22,830.57,632.55,832.16z M627.73,827.06c0-1.09-0.19-2.11-0.56-3.08c-0.37-0.97-0.91-1.81-1.59-2.54
		c-0.69-0.72-1.5-1.3-2.45-1.72c-0.94-0.42-1.97-0.63-3.08-0.63c-1.14,0-2.17,0.21-3.1,0.62c-0.93,0.41-1.73,0.98-2.39,1.7
		c-0.66,0.73-1.18,1.56-1.56,2.52c-0.37,0.96-0.56,1.98-0.56,3.06v0.07c0,1.09,0.19,2.12,0.56,3.08c0.37,0.97,0.91,1.81,1.59,2.54
		c0.69,0.73,1.5,1.3,2.43,1.72c0.93,0.42,1.96,0.63,3.1,0.63c1.11,0,2.14-0.21,3.08-0.62c0.94-0.41,1.75-0.98,2.41-1.7
		c0.66-0.73,1.18-1.56,1.56-2.52c0.37-0.95,0.56-1.98,0.56-3.06V827.06z"/>
	<path class="st1" d="M659.39,835.84c-0.45,0.87-1.09,1.6-1.92,2.18c-0.83,0.58-1.83,1.01-3,1.3c-1.17,0.29-2.47,0.44-3.89,0.44
		h-12.05v-25.38h11.76c2.6,0,4.65,0.59,6.13,1.78c1.48,1.18,2.23,2.78,2.23,4.78v0.07c0,0.72-0.09,1.36-0.27,1.92
		c-0.18,0.56-0.42,1.06-0.72,1.5c-0.3,0.45-0.65,0.84-1.05,1.18c-0.4,0.34-0.82,0.63-1.28,0.87c1.47,0.56,2.62,1.31,3.46,2.27
		c0.84,0.95,1.26,2.28,1.26,3.97v0.07C660.06,833.95,659.84,834.96,659.39,835.84z M653.14,821.88c0-0.84-0.31-1.49-0.94-1.94
		c-0.63-0.45-1.54-0.67-2.72-0.67h-5.51v5.37h5.15c1.23,0,2.21-0.21,2.94-0.63c0.73-0.42,1.09-1.11,1.09-2.05V821.88z
		 M654.55,832.03c0-0.85-0.33-1.52-0.98-2.01s-1.7-0.74-3.15-0.74h-6.45v5.58h6.63c1.23,0,2.2-0.22,2.9-0.67
		c0.7-0.45,1.05-1.14,1.05-2.08V832.03z"/>
	<path class="st1" d="M687.07,819.52v20.23h-5.58v-20.23h-7.72v-5.15h21.03v5.15H687.07z"/>
	<path class="st1" d="M723.9,832.16c-0.68,1.58-1.61,2.97-2.81,4.17c-1.2,1.2-2.62,2.14-4.28,2.83c-1.66,0.69-3.46,1.03-5.42,1.03
		s-3.76-0.34-5.4-1.03c-1.64-0.69-3.06-1.62-4.26-2.79c-1.2-1.17-2.13-2.55-2.79-4.13c-0.66-1.58-1-3.28-1-5.09v-0.07
		c0-1.81,0.34-3.51,1.01-5.09s1.61-2.97,2.81-4.17c1.2-1.2,2.62-2.14,4.28-2.83c1.65-0.69,3.46-1.03,5.42-1.03s3.76,0.34,5.4,1.03
		c1.64,0.69,3.06,1.62,4.26,2.79c1.2,1.17,2.13,2.55,2.79,4.13c0.66,1.58,1,3.28,1,5.09v0.07
		C724.92,828.87,724.58,830.57,723.9,832.16z M719.08,827.06c0-1.09-0.19-2.11-0.56-3.08c-0.37-0.97-0.91-1.81-1.59-2.54
		c-0.69-0.72-1.5-1.3-2.45-1.72c-0.94-0.42-1.97-0.63-3.08-0.63c-1.14,0-2.17,0.21-3.1,0.62c-0.93,0.41-1.73,0.98-2.39,1.7
		s-1.18,1.56-1.56,2.52c-0.37,0.96-0.56,1.98-0.56,3.06v0.07c0,1.09,0.19,2.12,0.56,3.08c0.37,0.97,0.91,1.81,1.59,2.54
		c0.69,0.73,1.5,1.3,2.43,1.72c0.93,0.42,1.96,0.63,3.1,0.63c1.11,0,2.14-0.21,3.08-0.62c0.94-0.41,1.75-0.98,2.41-1.7
		c0.66-0.73,1.18-1.56,1.56-2.52c0.37-0.95,0.56-1.98,0.56-3.06V827.06z"/>
	<path class="st1" d="M754.72,832.16c-0.68,1.58-1.61,2.97-2.81,4.17c-1.2,1.2-2.62,2.14-4.28,2.83c-1.66,0.69-3.46,1.03-5.42,1.03
		s-3.76-0.34-5.4-1.03c-1.64-0.69-3.06-1.62-4.26-2.79c-1.2-1.17-2.13-2.55-2.79-4.13c-0.66-1.58-1-3.28-1-5.09v-0.07
		c0-1.81,0.34-3.51,1.01-5.09c0.68-1.58,1.61-2.97,2.81-4.17c1.2-1.2,2.62-2.14,4.28-2.83c1.65-0.69,3.46-1.03,5.42-1.03
		s3.76,0.34,5.4,1.03c1.64,0.69,3.06,1.62,4.26,2.79c1.2,1.17,2.13,2.55,2.79,4.13c0.66,1.58,1,3.28,1,5.09v0.07
		C755.73,828.87,755.39,830.57,754.72,832.16z M749.9,827.06c0-1.09-0.19-2.11-0.56-3.08c-0.37-0.97-0.91-1.81-1.59-2.54
		c-0.69-0.72-1.5-1.3-2.45-1.72c-0.94-0.42-1.97-0.63-3.08-0.63c-1.14,0-2.17,0.21-3.1,0.62c-0.93,0.41-1.73,0.98-2.39,1.7
		c-0.66,0.73-1.18,1.56-1.56,2.52c-0.37,0.96-0.56,1.98-0.56,3.06v0.07c0,1.09,0.19,2.12,0.56,3.08c0.37,0.97,0.91,1.81,1.59,2.54
		c0.69,0.73,1.5,1.3,2.43,1.72c0.93,0.42,1.96,0.63,3.1,0.63c1.11,0,2.14-0.21,3.08-0.62c0.94-0.41,1.75-0.98,2.41-1.7
		c0.66-0.73,1.18-1.56,1.56-2.52c0.37-0.95,0.56-1.98,0.56-3.06V827.06z"/>
	<path class="st1" d="M789.23,835.6c-0.46,0.98-1.09,1.8-1.91,2.46c-0.82,0.66-1.79,1.17-2.92,1.52c-1.13,0.35-2.39,0.53-3.76,0.53
		c-1.93,0-3.83-0.33-5.69-1c-1.86-0.66-3.55-1.69-5.07-3.06l3.3-3.95c1.16,0.94,2.35,1.69,3.57,2.25c1.22,0.56,2.56,0.83,4.01,0.83
		c1.16,0,2.06-0.21,2.7-0.63c0.64-0.42,0.96-1.01,0.96-1.76v-0.07c0-0.36-0.07-0.68-0.2-0.96c-0.13-0.28-0.39-0.54-0.76-0.78
		c-0.38-0.24-0.9-0.48-1.56-0.73c-0.67-0.24-1.53-0.49-2.6-0.76c-1.28-0.31-2.45-0.66-3.49-1.05c-1.04-0.39-1.93-0.86-2.65-1.43
		c-0.73-0.57-1.29-1.27-1.69-2.12c-0.4-0.85-0.6-1.9-0.6-3.15v-0.07c0-1.16,0.22-2.21,0.65-3.14c0.43-0.93,1.04-1.73,1.82-2.41
		c0.78-0.68,1.71-1.2,2.8-1.56c1.08-0.36,2.28-0.54,3.58-0.54c1.86,0,3.57,0.28,5.13,0.83c1.56,0.56,2.99,1.35,4.3,2.39l-2.9,4.2
		c-1.14-0.77-2.25-1.38-3.34-1.83c-1.09-0.45-2.18-0.67-3.26-0.67c-1.09,0-1.9,0.21-2.45,0.63c-0.54,0.42-0.82,0.95-0.82,1.58v0.07
		c0,0.41,0.08,0.77,0.24,1.07c0.16,0.3,0.44,0.57,0.85,0.82c0.41,0.24,0.98,0.47,1.69,0.69c0.71,0.22,1.62,0.47,2.71,0.76
		c1.28,0.34,2.43,0.72,3.43,1.14c1,0.42,1.85,0.93,2.54,1.52c0.69,0.59,1.21,1.29,1.56,2.08s0.53,1.75,0.53,2.86v0.07
		C789.92,833.5,789.69,834.62,789.23,835.6z"/>
	<path class="st1" d="M814.64,839.75v-16.57l-7.14,10.84h-0.15l-7.07-10.73v16.46h-5.51v-25.38h6.02l6.67,10.73l6.67-10.73h6.02
		v25.38H814.64z"/>
	<path class="st1" d="M845.13,839.75l-2.32-5.69h-10.73l-2.32,5.69h-5.69l10.88-25.56h5.15l10.88,25.56H845.13z M837.45,820.9
		l-3.37,8.23h6.74L837.45,820.9z"/>
	<path class="st1" d="M854.88,839.75v-25.38h5.58v20.34h12.65v5.04H854.88z"/>
	<path class="st1" d="M877.32,839.75v-25.38h5.58v20.34h12.65v5.04H877.32z"/>
</g>
<g>
	<path class="st1" d="M267.45,618.14h16.88l26.89,63.62h-18.77l-4.6-11.28h-24.37l-4.51,11.28h-18.41L267.45,618.14z M282.79,656.86
		l-7.04-17.96l-7.13,17.96H282.79z"/>
	<path class="st1" d="M324.67,633.94h-18.95V618.6h55.41v15.34h-18.95v47.83h-17.51V633.94z"/>
	<path class="st1" d="M368.8,618.6h17.51v47.83h30.59v15.34h-48.1V618.6z"/>
	<path class="st1" d="M421.77,654.06V618.6h17.78v35.11c0,9.12,4.6,13.45,11.64,13.45c7.04,0,11.64-4.15,11.64-13V618.6h17.78v35.02
		c0,20.4-11.64,29.33-29.6,29.33C433.05,682.94,421.77,673.83,421.77,654.06z"/>
	<path class="st1" d="M490.99,618.6h29.87c9.66,0,16.34,2.53,20.58,6.86c3.7,3.61,5.59,8.48,5.59,14.71v0.18
		c0,9.66-5.14,16.06-13,19.4l15.07,22.02H528.9l-12.72-19.13h-0.18h-7.49v19.13h-17.51V618.6z M520.05,648.92
		c5.96,0,9.39-2.89,9.39-7.49v-0.18c0-4.96-3.61-7.49-9.48-7.49H508.5v15.16H520.05z"/>
	<path class="st1" d="M555.88,618.6h32.4c7.94,0,13.54,1.99,17.24,5.69c2.53,2.53,4.06,5.87,4.06,10.2v0.18
		c0,7.31-4.15,11.64-9.75,14.08c7.67,2.53,12.54,6.86,12.54,15.43v0.18c0,10.83-8.84,17.42-23.92,17.42h-32.58V618.6z
		 M583.95,643.77c5.32,0,8.3-1.8,8.3-5.5v-0.18c0-3.43-2.71-5.42-7.94-5.42h-11.37v11.1H583.95z M586.48,667.69
		c5.32,0,8.39-2.08,8.39-5.78v-0.18c0-3.43-2.71-5.69-8.57-5.69h-13.36v11.64H586.48z"/>
	<path class="st1" d="M642.25,618.14h16.88l26.89,63.62h-18.77l-4.6-11.28h-24.37l-4.51,11.28h-18.41L642.25,618.14z M657.59,656.86
		l-7.04-17.96l-7.13,17.96H657.59z"/>
	<path class="st1" d="M692.16,618.6h16.33l25.99,33.39V618.6h17.33v63.17h-15.34l-26.98-34.66v34.66h-17.33V618.6z"/>
</g>
</svg>
